<?xml version="1.0" standalone="no"?><!DOCTYPE svg PUBLIC "-//W3C//DTD SVG 1.1//EN" "http://www.w3.org/Graphics/SVG/1.1/DTD/svg11.dtd"><svg t="1560593794449" class="icon" style="" viewBox="0 0 1024 1024" version="1.1" xmlns="http://www.w3.org/2000/svg" p-id="1191" xmlns:xlink="http://www.w3.org/1999/xlink" width="16" height="16"><defs><style type="text/css"></style></defs><path d="M602.9 561.9L270.5 894.4c-12 12-26.7 18-43.9 18-16.9 0-31.7-6-44.4-18l-51.7-52.7c-12.4-11.7-18.6-26.3-18.6-43.9 0-17.2 6.2-32 18.6-44.4l332-331.9c12.7 31.9 31.3 60.1 55.8 84.6 24.6 24.6 52.8 43.2 84.6 55.8zM279.7 788.6c6.2-6.2 9.2-13.4 9.2-21.9 0-8.4-3.1-15.8-9.2-21.9-6.2-6.2-13.5-9.2-21.9-9.2-8.4 0-15.8 3.1-21.9 9.2-6.2 6.2-9.2 13.5-9.2 21.9s3.1 15.8 9.2 21.9c6.2 6.2 13.4 9.2 21.9 9.2 8.4 0 15.7-3 21.9-9.2zM912 349.9c0 12.7-3.7 29.9-11.2 51.7-15.3 43.6-42 78.9-80.2 106-38.2 27.2-80.2 40.7-126 40.7-60.1 0-111.5-21.3-154.3-64.1s-64.1-94.1-64.1-154.3c0-60.1 21.3-111.5 64.1-154.3s94.1-64.1 154.3-64.1c18.9 0 38.5 2.7 59.3 8 20.6 5.3 38.1 12.9 52.4 22.7 5.2 3.6 7.8 8.1 7.8 13.6s-2.6 10-7.8 13.6l-142.8 82.4V361l94.1 52.2c1.6-1 14.5-8.8 38.5-23.7 24.1-14.8 46-28 66-39.5s31.5-17.3 34.3-17.3c4.9 0 8.7 1.6 11.5 4.9 2.7 3.4 4.1 7.4 4.1 12.3z" p-id="1192"></path></svg>